<?xml version="1.0" encoding="UTF-8"?><svg xmlns="http://www.w3.org/2000/svg" viewBox="0 0 120 120"><defs><style>.a{fill:#c8c8d2}.a,.b,.c,.e,.f,.g,.h,.i,.j{stroke:#17161d;stroke-width:2.42}.b{fill:#d1d0d2;stroke-linecap:round}.c{fill:#fafafa}.d{fill:#17161d}.e{fill:#e82c64}.f{fill:#ef6b92}.g{fill:#f395b1}.h{fill:#9e2b9c}.i{fill:#bb6aba}.j{fill:#cf95cd}</style></defs><path class="a" d="M18.8,58.3,44.3,32.8a1.8,1.8,0,0,1,2.5,0l4.5,4.5a1.9,1.9,0,0,1,0,2.6l-19.1,19a1.9,1.9,0,0,0,0,2.6L51.3,80.6a1.9,1.9,0,0,1,0,2.6l-4.5,4.4a1.8,1.8,0,0,1-2.5,0L18.8,62.1A2.6,2.6,0,0,1,18.8,58.3Z"/><line class="b" x1="48.2" y1="43" x2="45" y2="39.8"/><line class="b" x1="44" y1="47.2" x2="41.8" y2="45.1"/><line class="b" x1="35.4" y1="55.8" x2="33.3" y2="53.6"/><line class="b" x1="39.7" y1="51.5" x2="36.5" y2="48.3"/><line class="b" x1="35.4" y1="64.7" x2="33.3" y2="66.8"/><line class="b" x1="44" y1="73.2" x2="41.8" y2="75.4"/><line class="b" x1="39.7" y1="69" x2="36.5" y2="72.2"/><line class="b" x1="48.2" y1="77.5" x2="44.5" y2="81.2"/><rect class="c" x="79.9" y="50.7" width="10" height="40.56" rx="1.8" ry="1.8" transform="translate(75.1 -39.2) rotate(45)"/><rect class="c" x="79.9" y="29.1" width="10" height="40.56" rx="1.8" ry="1.8" transform="translate(179.8 24.2) rotate(135)"/><circle class="d" cx="95.7" cy="60.2" r="1.4"/><path class="e" d="M71,33.2h7.2a0,0,0,0,1,0,0v10a0,0,0,0,1,0,0H71a1.8,1.8,0,0,1-1.8-1.8V35.1A1.8,1.8,0,0,1,71,33.2Z" transform="translate(48.6 -41) rotate(45)"/><rect class="f" x="75.6" y="39.6" width="9" height="9.95" transform="translate(55 -43.6) rotate(45)"/><rect class="g" x="82" y="46" width="9" height="9.95" transform="translate(61.4 -46.3) rotate(45)"/><path class="h" d="M70.9,77.3h7.2a0,0,0,0,1,0,0v10a0,0,0,0,1,0,0H70.9a1.8,1.8,0,0,1-1.8-1.8V79.1A1.8,1.8,0,0,1,70.9,77.3Z" transform="translate(-36.6 76.2) rotate(-45)"/><rect class="i" x="75.5" y="70.9" width="9" height="9.95" transform="translate(-30.2 78.8) rotate(-45)"/><rect class="j" x="81.9" y="64.5" width="9" height="9.95" transform="translate(-23.8 81.5) rotate(-45)"/></svg>
