<?xml version="1.0" encoding="utf-8"?><svg version="1.1" xmlns="http://www.w3.org/2000/svg" viewBox="0 0 96 96"><defs><style>.s0{fill:#FAFAFA}.s1{fill:#FFEB8C}.s2{fill:#222}</style></defs><path class="s0" d="M0,0h96v96h-96"/><path class="s1" d="M13,13h70v70h-70"/><path class="s2" d="M44.6,68.1c-0.5-1.2-1.4-1-2.4-0.4c-2.6,1.8-4.4,2.9-7.3,3.7c-10,2-21.3-1.5-26.3-10.4c-4.1-6.9-4.1-18.4,0.1-25.4C13.1,27.9,21.2,24,30.2,24c5,0,8.2,1.4,12,4.2c2,1.5,2.6,0,2.9-3.3h1.5c-0.2,3.1-0.3,8.5-0.3,16.3h-1.5c-0.4-4-0.8-6.9-2.7-10c-3.5-5.5-12.6-7.2-16.8-1.9c-4.1,5-4.7,12.2-4.9,18.8C20.7,56.8,22,70,32.8,70.2c3.4,0,7.5-2.2,9.4-5.2c2-3.3,2.3-6.5,2.7-10.9h1.5c0,8.1,0.1,13.7,0.3,16.9h-1.5C45,69.7,44.8,68.7,44.6,68.1z"/><path class="s2" d="M66.9,63.5c-0.2,5.7,1.9,6.1,7.3,6.1v1.5c-13.4-0.2-10.3-0.3-25.1,0v-1.3c4.3-0.1,4.7-1.5,4.6-5.6c0,0,0-32.3,0-32.3c0-4-0.4-5.6-4.6-5.6v-1.3c3.6,0.2,11.8,0.2,17.2,0.1c5.9-0.2,11-0.1,15.4,1.5c8.2,2.6,11.1,11,6.8,18.1c-4.2,6.6-13.1,7.9-21.5,7.7V63.5z M75,47.7c1.1-2.3,1.7-5.3,1.7-9.2c-0.2-6-0.4-12.1-6.3-12.3c-1.8,0-2.8,0.3-3.3,2.1c-0.5,1.9-0.2,20.4-0.3,22.8C70.4,51.3,73.6,50.7,75,47.7z"/></svg>
