<?xml version="1.0" encoding="UTF-8"?><svg xmlns="http://www.w3.org/2000/svg" viewBox="0 0 96 96"><path d="M41.5,26a3.3,3.3,0,0,0,0-4.7l-5.1-5.1a3.3,3.3,0,0,0-4.7,0L2.9,44.9a4.4,4.4,0,0,0,0,6.2L31.7,79.9a3.4,3.4,0,0,0,2.3,1,3.5,3.5,0,0,0,2.4-1l5.1-5.1a3.4,3.4,0,0,0,0-4.8L20,48.5a.6.6,0,0,1-.2-.5.4.4,0,0,1,.2-.4Z"/><path d="M93.4,45.6,63.9,16.1a3.3,3.3,0,0,0-4.7,0l-5.1,5.1a3.3,3.3,0,0,0,0,4.8l22,22h0l7.4,7.5a3.8,3.8,0,0,0,2.4.9,3.6,3.6,0,0,0,2.4-.9l5.1-5.1A3.4,3.4,0,0,0,93.4,45.6Z"/><path d="M80.7,58.3l-7.5-7.5L54.1,70a3.2,3.2,0,0,0,0,4.7l5.1,5.1a2.9,2.9,0,0,0,2.3,1,3.1,3.1,0,0,0,2.4-1L83.7,60.1A9.2,9.2,0,0,1,80.7,58.3Z"/></svg>
